<svg width="2048" height="2048" viewBox="0 0 2048 2048" fill="none" xmlns="http://www.w3.org/2000/svg">
<rect width="2048" height="2048" fill="#8ACE00"/>
<path d="M626.997 1291.57H583.68V747.52H630.369V941.613C650.082 906.233 675.241 888.543 705.848 888.543C722.795 888.543 738.79 893.492 753.834 903.388C769.051 913.037 781.501 926.768 791.185 944.582C801.041 962.148 808.736 983.425 814.27 1008.41C819.803 1033.4 822.57 1060.12 822.57 1088.57C822.57 1156.12 810.898 1208.32 787.553 1245.18C764.209 1282.05 736.196 1300.48 703.514 1300.48C671.005 1300.48 645.499 1281.06 626.997 1242.22V1291.57ZM626.478 1091.54C626.478 1138.8 630.974 1172.94 639.966 1193.97C654.664 1228.36 674.55 1245.56 699.623 1245.56C720.028 1245.56 737.666 1232.94 752.537 1207.7C767.408 1182.22 774.844 1144.36 774.844 1094.14C774.844 1042.68 767.668 1004.7 753.315 980.209C739.136 955.715 721.93 943.468 701.698 943.468C681.294 943.468 663.656 956.21 648.785 981.693C633.913 1006.93 626.478 1043.55 626.478 1091.54Z" fill="black"/>
<path d="M879.115 1291.57V897.45H921.135V957.199C931.856 929.242 941.712 910.81 950.704 901.903C959.869 892.997 969.898 888.543 980.792 888.543C996.528 888.543 1012.52 895.718 1028.78 910.068L1012.7 972.044C1001.28 962.395 989.871 957.571 978.458 957.571C968.256 957.571 959.091 962.024 950.964 970.931C942.836 979.59 937.043 991.713 933.585 1007.3C928.397 1031.05 925.804 1057.03 925.804 1085.23V1291.57H879.115Z" fill="black"/>
<path d="M1236.28 1242.96C1218.99 1263.99 1202.3 1278.83 1186.22 1287.49C1170.31 1296.15 1153.19 1300.48 1134.86 1300.48C1104.6 1300.48 1081.35 1289.97 1065.09 1268.94C1048.84 1247.66 1040.71 1220.57 1040.71 1187.66C1040.71 1168.36 1043.74 1150.8 1049.79 1134.96C1056.01 1118.88 1064.05 1106.02 1073.91 1096.37C1083.94 1086.72 1095.18 1079.42 1107.63 1074.47C1116.79 1071.01 1130.63 1067.67 1149.13 1064.45C1186.83 1058.02 1214.58 1050.35 1232.39 1041.44C1232.56 1032.29 1232.65 1026.47 1232.65 1024C1232.65 996.785 1228.24 977.611 1219.42 966.477C1207.49 951.385 1189.77 943.839 1166.25 943.839C1144.29 943.839 1128.03 949.406 1117.49 960.54C1107.11 971.426 1099.42 990.847 1094.4 1018.8L1048.75 1009.9C1052.9 981.94 1059.73 959.426 1069.24 942.355C1078.75 925.036 1092.5 911.8 1110.48 902.646C1128.47 893.244 1149.3 888.543 1172.99 888.543C1196.51 888.543 1215.62 892.502 1230.32 900.419C1245.02 908.336 1255.82 918.356 1262.74 930.479C1269.66 942.355 1274.5 957.447 1277.26 975.755C1278.82 987.136 1279.6 1007.67 1279.6 1037.36V1126.43C1279.6 1188.53 1280.55 1227.87 1282.45 1244.44C1284.53 1260.77 1288.5 1276.48 1294.38 1291.57H1245.62C1240.78 1277.72 1237.67 1261.51 1236.28 1242.96ZM1232.39 1093.77C1215.45 1103.67 1190.03 1112.08 1156.13 1119.01C1136.94 1122.96 1123.37 1127.42 1115.41 1132.37C1107.46 1137.31 1101.32 1144.61 1097 1154.26C1092.67 1163.66 1090.51 1174.18 1090.51 1185.81C1090.51 1203.62 1095.18 1218.46 1104.52 1230.34C1114.03 1242.22 1127.86 1248.15 1146.02 1248.15C1164 1248.15 1180 1242.59 1194 1231.45C1208.01 1220.07 1218.3 1204.61 1224.87 1185.06C1229.88 1169.97 1232.39 1147.7 1232.39 1118.26V1093.77Z" fill="black"/>
<path d="M1454.16 1231.82L1460.91 1290.83C1447.76 1294.79 1436.01 1296.77 1425.63 1296.77C1408.68 1296.77 1395.54 1292.93 1386.2 1285.26C1376.87 1277.59 1370.3 1267.57 1366.49 1255.2C1362.69 1242.59 1360.79 1216.24 1360.79 1176.16V949.406H1326.55V897.45H1360.79V799.847L1407.21 759.767V897.45H1454.16V949.406H1407.21V1179.87C1407.21 1198.92 1407.99 1211.17 1409.55 1216.61C1411.28 1222.05 1413.96 1226.38 1417.59 1229.6C1421.39 1232.81 1426.75 1234.42 1433.67 1234.42C1438.86 1234.42 1445.69 1233.56 1454.16 1231.82Z" fill="black"/>
</svg>
